<svg width="345.2737548828125px" height="122.021240234375px" xmlns="http://www.w3.org/2000/svg" viewBox="77.36312255859374 13.9893798828125 345.2737548828125 122.021240234375" style="background: rgba(0, 0, 0, 0);" preserveAspectRatio="xMidYMid"><defs><filter id="editing-extrude-glow"><feFlood flood-color="#333333" result="flood-1"></feFlood><feMorphology operator="erode" radius="1" in="SourceAlpha" result="erode"></feMorphology><feComposite operator="in" in="flood-1" in2="erode" result="comp1"></feComposite><feConvolveMatrix order="3,3" divisor="1" in="comp1" result="convolve" kernelMatrix="0 0 0 1 1 1 0 0 0"></feConvolveMatrix><feOffset dx="-3" dy="0" in="convolve" result="extrude"></feOffset><feComposite operator="in" in="flood-1" in2="extrude" result="comp-extrude"></feComposite><feFlood flood-color="#000000" result="flood-2"></feFlood><feComposite operator="in" in="flood-2" in2="SourceAlpha" result="comp2"></feComposite><feMorphology operator="dilate" radius="1" in="comp2" result="dilate"></feMorphology><feOffset dx="-4.5" dy="0" in="dilate" result="offset"></feOffset><feGaussianBlur in="offset" stdDeviation="5.8" result="blur"></feGaussianBlur><feComponentTransfer in="blur" result="shadow"><feFuncA type="linear" slope="0.8" intercept="-0.2"></feFuncA></feComponentTransfer><feMerge><feMergeNode in="shadow"></feMergeNode><feMergeNode in="comp-extrude"></feMergeNode><feMergeNode in="SourceGraphic"></feMergeNode></feMerge></filter></defs><g filter="url(#editing-extrude-glow)"><g transform="translate(131.45218229293823, 101.20218658447266)"><path d="M20.22-22.46L20.22-22.46L20.22-22.46Q21.12-24.83 21.12-26.88L21.12-26.88L21.12-26.88Q21.12-30.66 18.05-30.66L18.05-30.66L18.05-30.66Q16.45-30.66 15.14-29.22L15.14-29.22L15.14-29.22Q13.82-27.78 13.82-25.98L13.82-25.98L13.82-25.98Q13.82-24.70 14.85-23.68L14.85-23.68L14.85-23.68Q16.32-22.27 20.10-19.97L20.10-19.97L20.10-19.97Q23.87-17.66 25.31-15.78L25.31-15.78L25.31-15.78Q26.75-13.89 26.75-11.30L26.75-11.30L26.75-11.30Q26.75-8.70 25.50-6.34L25.50-6.34L25.50-6.34Q24.26-3.97 22.02-2.30L22.02-2.30L22.02-2.30Q17.22 1.28 9.54 1.28L9.54 1.28L9.54 1.28Q5.38 1.28 2.18-0.90L2.18-0.90L2.18-0.90Q-1.02-3.01-1.02-5.50L-1.02-5.50L-1.02-5.50Q-1.02-8 0.80-9.47L0.80-9.47L0.80-9.47Q2.62-10.94 5.31-10.94L5.31-10.94L5.31-10.94Q8-10.94 9.66-9.92L9.66-9.92L9.66-9.92Q8.83-7.81 8.83-6.40L8.83-6.40L8.83-6.40Q8.83-2.18 12.42-2.18L12.42-2.18L12.42-2.18Q13.95-2.18 14.98-3.14L14.98-3.14L14.98-3.14Q16-4.10 16-5.76L16-5.76L16-5.76Q16-9.02 10.50-12.48L10.50-12.48L10.50-12.48Q6.02-15.42 4.99-16.58L4.99-16.58L4.99-16.58Q3.26-18.62 3.26-21.18L3.26-21.18L3.26-21.18Q3.26-23.74 4.48-26.18L4.48-26.18L4.48-26.18Q5.70-28.61 7.94-30.34L7.94-30.34L7.94-30.34Q12.61-33.92 20.74-33.92L20.74-33.92L20.74-33.92Q24.90-33.92 27.36-32.26L27.36-32.26L27.36-32.26Q29.82-30.59 29.82-27.78L29.82-27.78L29.82-27.78Q29.82-24.96 28.13-23.36L28.13-23.36L28.13-23.36Q26.43-21.76 23.36-21.76L23.36-21.76L23.36-21.76Q21.25-21.76 20.22-22.46ZM33.22-6.40L33.22-6.40L33.22-6.40Q33.22-8.13 34.11-12.48L34.11-12.48L37.50-29.76L33.73-29.76L33.98-31.68L33.98-31.68Q41.66-33.98 49.09-39.62L49.09-39.62L52.16-39.62L50.62-32.64L55.62-32.64L55.04-29.76L50.11-29.76L46.85-12.48L46.85-12.48Q46.02-8.51 46.02-7.17L46.02-7.17L46.02-7.17Q46.02-4.10 48.70-3.46L48.70-3.46L48.70-3.46Q48.06-1.28 45.76 0L45.76 0L45.76 0Q43.46 1.28 40.19 1.28L40.19 1.28L40.19 1.28Q36.93 1.28 35.07-0.77L35.07-0.77L35.07-0.77Q33.22-2.82 33.22-6.40ZM68.99 1.28L68.99 1.28L68.99 1.28Q54.91 1.28 54.91-11.97L54.91-11.97L54.91-11.97Q54.91-21.38 60.10-27.46L60.10-27.46L60.10-27.46Q65.60-33.92 75.14-33.92L75.14-33.92L75.14-33.92Q82.05-33.92 85.57-30.72L85.57-30.72L85.57-30.72Q89.09-27.52 89.09-20.80L89.09-20.80L89.09-20.80Q89.09-10.56 83.58-4.61L83.58-4.61L83.58-4.61Q78.21 1.28 68.99 1.28ZM70.66-26.56L70.66-26.56L70.66-26.56Q69.89-24.83 69.28-22.24L69.28-22.24L69.28-22.24Q68.67-19.65 67.90-15.55L67.90-15.55L67.90-15.55Q67.14-11.46 67.14-6.40L67.14-6.40L67.14-6.40Q67.14-4.74 67.68-3.65L67.68-3.65L67.68-3.65Q68.22-2.56 69.70-2.56L69.70-2.56L69.70-2.56Q71.17-2.56 72.10-3.26L72.10-3.26L72.10-3.26Q73.02-3.97 73.73-5.63L73.73-5.63L73.73-5.63Q75.01-8.58 76.03-14.05L76.03-14.05L76.03-14.05Q77.06-19.52 77.15-21.89L77.15-21.89L77.15-21.89Q77.25-24.26 77.25-26.02L77.25-26.02L77.25-26.02Q77.25-27.78 76.74-28.93L76.74-28.93L76.74-28.93Q76.22-30.08 74.78-30.08L74.78-30.08L74.78-30.08Q73.34-30.08 72.38-29.18L72.38-29.18L72.38-29.18Q71.42-28.29 70.66-26.56ZM112.90-17.98L112.90-17.98L112.90-17.98Q115.20-22.08 115.20-26.24L115.20-26.24L115.20-26.24Q115.20-28.99 113.22-28.99L113.22-28.99L113.22-28.99Q111.68-28.99 110.08-26.37L110.08-26.37L110.08-26.37Q108.42-23.74 107.90-20.35L107.90-20.35L104.58 0L91.33 1.28L97.86-32.64L108.42-33.92L107.26-27.46L107.26-27.46Q110.40-33.92 117.44-33.92L117.44-33.92L117.44-33.92Q121.15-33.92 123.17-32L123.17-32L123.17-32Q125.18-30.08 125.18-26.14L125.18-26.14L125.18-26.14Q125.18-22.21 122.59-19.71L122.59-19.71L122.59-19.71Q120-17.22 115.58-17.22L115.58-17.22L115.58-17.22Q113.66-17.22 112.90-17.98ZM128.99-1.92L128.99-1.92L128.99-1.92Q127.49-3.58 126.82-6.21L126.82-6.21L126.82-6.21Q126.14-8.83 126.14-13.12L126.14-13.12L126.14-13.12Q126.14-17.41 127.62-21.31L127.62-21.31L127.62-21.31Q129.09-25.22 131.78-28.03L131.78-28.03L131.78-28.03Q137.28-33.92 146.37-33.92L146.37-33.92L146.37-33.92Q149.63-33.92 152-32.83L152-32.83L162.94-33.92L158.21-8.96L158.21-8.96Q158.02-8.19 158.02-6.78L158.02-6.78L158.02-6.78Q158.02-5.38 158.88-4.48L158.88-4.48L158.88-4.48Q159.74-3.58 161.02-3.46L161.02-3.46L161.02-3.46Q160.38-1.28 158.05 0L158.05 0L158.05 0Q155.71 1.28 153.09 1.28L153.09 1.28L153.09 1.28Q150.46 1.28 148.70 0.29L148.70 0.29L148.70 0.29Q146.94-0.70 146.43-2.37L146.43-2.37L146.43-2.37Q145.41-0.77 143.23 0.26L143.23 0.26L143.23 0.26Q141.06 1.28 138.14 1.28L138.14 1.28L138.14 1.28Q135.23 1.28 132.86 0.51L132.86 0.51L132.86 0.51Q130.50-0.26 128.99-1.92ZM142.50-27.90L142.50-27.90L142.50-27.90Q141.76-26.75 141.12-24.80L141.12-24.80L141.12-24.80Q140.48-22.85 139.42-17.63L139.42-17.63L139.42-17.63Q138.37-12.42 138.37-8.70L138.37-8.70L138.37-8.70Q138.37-4.99 138.94-3.90L138.94-3.90L138.94-3.90Q139.52-2.82 140.54-2.82L140.54-2.82L140.54-2.82Q142.59-2.82 144.10-4.77L144.10-4.77L144.10-4.77Q145.60-6.72 146.18-10.18L146.18-10.18L149.57-28.93L149.57-28.93Q148.22-30.08 146.66-30.08L146.66-30.08L146.66-30.08Q145.09-30.08 144.16-29.57L144.16-29.57L144.16-29.57Q143.23-29.06 142.50-27.90ZM170.69-26.75L170.69-26.75L170.69-26.75Q172.86-29.82 176.16-31.87L176.16-31.87L176.16-31.87Q179.46-33.92 183.49-33.92L183.49-33.92L183.49-33.92Q187.52-33.92 189.44-32.64L189.44-32.64L201.98-33.92L197.63-9.34L197.63-9.34Q195.39 3.20 190.66 8.13L190.66 8.13L190.66 8.13Q186.11 12.80 177.28 12.80L177.28 12.80L177.28 12.80Q170.56 12.80 166.72 10.69L166.72 10.69L166.72 10.69Q162.88 8.58 162.88 5.06L162.88 5.06L162.88 5.06Q162.88 2.43 164.86 0.93L164.86 0.93L164.86 0.93Q166.85-0.58 169.92-0.58L169.92-0.58L169.92-0.58Q172.61-0.58 174.66 0.64L174.66 0.64L174.66 0.64Q175.87 1.28 176.45 2.18L176.45 2.18L176.45 2.18Q174.98 3.46 174.98 5.57L174.98 5.57L174.98 5.57Q174.98 8.32 177.54 8.32L177.54 8.32L177.54 8.32Q181.82 8.32 184.26-1.79L184.26-1.79L184.26-1.79Q184.96-4.54 185.54-7.30L185.54-7.30L185.54-7.30Q182.66-3.78 176.13-3.78L176.13-3.78L176.13-3.78Q171.58-3.78 168.96-5.95L168.96-5.95L168.96-5.95Q166.34-8.13 166.34-13.25L166.34-13.25L166.34-13.25Q166.34-16.45 167.42-20.06L167.42-20.06L167.42-20.06Q168.51-23.68 170.69-26.75ZM179.01-13.06L179.01-13.06L179.01-13.06Q179.01-8.70 181.25-8.70L181.25-8.70L181.25-8.70Q182.78-8.70 184.26-10.37L184.26-10.37L184.26-10.37Q185.41-11.71 185.86-13.70L185.86-13.70L189.12-30.14L189.12-30.14Q188.80-30.21 188.48-30.34L188.48-30.34L188.48-30.34Q187.84-30.59 187.01-30.59L187.01-30.59L187.01-30.59Q183.10-30.59 180.80-24.19L180.80-24.19L180.80-24.19Q179.01-19.20 179.01-13.06ZM230.40-10.82L230.40-10.82L230.40-10.82Q232-9.73 232-7.33L232-7.33L232-7.33Q232-4.93 230.78-3.39L230.78-3.39L230.78-3.39Q229.57-1.86 227.58-0.83L227.58-0.83L227.58-0.83Q223.49 1.28 219.07 1.28L219.07 1.28L219.07 1.28Q214.66 1.28 212.06 0.32L212.06 0.32L212.06 0.32Q209.47-0.64 207.74-2.43L207.74-2.43L207.74-2.43Q204.35-5.82 204.35-12.03L204.35-12.03L204.35-12.03Q204.35-21.70 209.60-27.58L209.60-27.58L209.60-27.58Q215.23-33.92 225.02-33.92L225.02-33.92L225.02-33.92Q231.10-33.92 234.11-31.36L234.11-31.36L234.11-31.36Q236.35-29.44 236.35-26.30L236.35-26.30L236.35-26.30Q236.35-15.04 216.90-15.04L216.90-15.04L216.90-15.04Q216.64-13.38 216.64-11.97L216.64-11.97L216.64-11.97Q216.64-9.02 217.95-7.90L217.95-7.90L217.95-7.90Q219.26-6.78 221.70-6.78L221.70-6.78L221.70-6.78Q224.13-6.78 226.72-7.90L226.72-7.90L226.72-7.90Q229.31-9.02 230.40-10.82ZM217.34-17.79L217.34-17.79L217.34-17.79Q221.89-17.79 224.51-20.61L224.51-20.61L224.51-20.61Q227.14-23.30 227.14-27.58L227.14-27.58L227.14-27.58Q227.14-29.06 226.59-29.86L226.59-29.86L226.59-29.86Q226.05-30.66 224.96-30.66L224.96-30.66L224.96-30.66Q223.87-30.66 222.94-30.24L222.94-30.24L222.94-30.24Q222.02-29.82 221.06-28.42L221.06-28.42L221.06-28.42Q218.69-25.22 217.34-17.79Z" fill="#eb6c6c"></path></g></g><style>text {
  font-size: 64px;
  font-family: Arial Black;
  dominant-baseline: central;
  text-anchor: middle;
}</style></svg>